<?xml version="1.0" encoding="utf-8"?>
<!-- Generator: Adobe Illustrator 24.0.0, SVG Export Plug-In . SVG Version: 6.00 Build 0)  -->
<svg version="1.1" id="Layer_1" xmlns="http://www.w3.org/2000/svg" xmlns:xlink="http://www.w3.org/1999/xlink" x="0px" y="0px"
	 viewBox="0 0 256 256" enable-background="new 0 0 256 256" xml:space="preserve">
<g>
	<path fill="#CECECE" d="M32.035,189.343c-7.535,0-13.665-6.13-13.665-13.665V51.902c0-7.535,6.13-13.665,13.665-13.665h191.931
		c7.535,0,13.665,6.13,13.665,13.665v123.776c0,7.535-6.13,13.665-13.665,13.665H32.035z"/>
	<g>
		<path fill="#E2E2E2" d="M223.965,38.237h-14.667c7.534,0,13.665,6.13,13.665,13.665v123.776c0,7.534-6.13,13.665-13.665,13.665
			h14.667c7.535,0,13.665-6.13,13.665-13.665V51.902C237.63,44.367,231.5,38.237,223.965,38.237z"/>
	</g>
	<g>
		<path fill="#AFAFAF" d="M32.035,38.237h14.667c-7.534,0-13.665,6.13-13.665,13.665v123.776c0,7.534,6.13,13.665,13.665,13.665
			H32.035c-7.535,0-13.665-6.13-13.665-13.665V51.902C18.37,44.367,24.5,38.237,32.035,38.237z"/>
	</g>
	<path fill="#63BCE7" d="M229.221,51.926v123.728c0,2.916-2.364,5.28-5.28,5.28H32.059c-2.916,0-5.28-2.364-5.28-5.28V51.926
		c0-2.916,2.364-5.28,5.28-5.28h191.882C226.857,46.646,229.221,49.01,229.221,51.926z"/>
	<g>
		<path fill="#63E2E7" d="M223.941,46.646h-14.667c2.916,0,5.28,2.364,5.28,5.28v123.728c0,2.916-2.364,5.28-5.28,5.28h14.667
			c2.916,0,5.28-2.364,5.28-5.28V51.926C229.221,49.01,226.857,46.646,223.941,46.646z"/>
	</g>
	<g>
		<path fill="#6377E7" d="M32.059,46.646h14.667c-2.916,0-5.28,2.364-5.28,5.28v123.728c0,2.916,2.364,5.28,5.28,5.28H32.059
			c-2.916,0-5.28-2.364-5.28-5.28V51.926C26.779,49.01,29.143,46.646,32.059,46.646z"/>
	</g>
	<path fill="#CECECE" d="M128,189.343H8.667l3.053,7.024c2.751,6.329,8.995,10.423,15.896,10.423H128h100.385
		c6.901,0,13.145-4.094,15.896-10.423l3.053-7.024H128z"/>
	<g>
		<path fill="#E2E2E2" d="M232.667,189.343l-3.053,7.024c-2.751,6.329-8.995,10.423-15.896,10.423h14.667
			c6.901,0,13.145-4.094,15.896-10.423l3.053-7.024H232.667z"/>
	</g>
	<g>
		<path fill="#AFAFAF" d="M23.333,189.343l3.053,7.024c2.751,6.329,8.995,10.423,15.896,10.423H27.615
			c-6.901,0-13.145-4.094-15.896-10.423l-3.053-7.024H23.333z"/>
	</g>
	<path fill="#707070" d="M82.442,189.343l4.22,5.388c1.649,2.106,4.175,3.336,6.85,3.336h68.975c2.675,0,5.201-1.23,6.85-3.336
		l4.221-5.388H82.442z"/>
	<rect x="52.757" y="66.666" fill="#F8AF23" width="150.487" height="56.842"/>
	<g>
		<path fill="#63BCE7" d="M218.871,206.79h-52.477c-5.716,0-10.35-4.634-10.35-10.35V89.266c0-5.716,4.634-10.35,10.35-10.35h52.477
			c5.716,0,10.35,4.634,10.35,10.35V196.44C229.221,202.156,224.587,206.79,218.871,206.79z"/>
		<g>
			<path fill="#63E2E7" d="M218.871,78.916h-14.667c5.716,0,10.35,4.634,10.35,10.35V196.44c0,5.716-4.634,10.35-10.35,10.35h14.667
				c5.716,0,10.35-4.634,10.35-10.35V89.266C229.221,83.55,224.587,78.916,218.871,78.916z"/>
		</g>
		<path fill="#CECECE" d="M156.044,196.442c0,5.715,4.633,10.348,10.348,10.348h52.48c5.715,0,10.348-4.633,10.348-10.348v-6.115
			h-73.177V196.442z"/>
		<path fill="#E2E2E2" d="M214.554,190.327v6.115c0,5.715-4.633,10.348-10.348,10.348h14.667c5.715,0,10.348-4.633,10.348-10.348
			v-6.115H214.554z"/>
		<path fill="#CECECE" d="M229.221,89.264c0-5.715-4.633-10.348-10.348-10.348h-52.48c-5.715,0-10.348,4.633-10.348,10.348v6.115
			h73.177V89.264z"/>
		<path fill="#E2E2E2" d="M218.873,78.916h-14.667c5.715,0,10.348,4.633,10.348,10.348v6.115h14.667v-6.115
			C229.221,83.549,224.588,78.916,218.873,78.916z"/>
		<rect x="179.539" y="84.424" fill="#F8AF23" width="25.871" height="5.447"/>
		<circle fill="#F8AF23" cx="192.743" cy="198.844" r="3.141"/>
	</g>
	<rect x="166.849" y="107.087" fill="#F8AF23" width="51.789" height="31.263"/>
	<g>
		<path fill="#3F3679" d="M245.656,196.964l3.053-7.023c0.202-0.464,0.156-0.997-0.121-1.42s-0.749-0.678-1.254-0.678h-14.335
			c3.795-2.832,6.132-7.34,6.132-12.165V51.901c0-8.361-6.803-15.164-15.165-15.164H32.035c-8.362,0-15.165,6.803-15.165,15.164
			v123.776c0,4.983,2.427,9.399,6.149,12.165H8.667c-0.505,0-0.977,0.255-1.254,0.678s-0.323,0.957-0.121,1.42l3.053,7.023
			c1.517,3.491,4.012,6.352,7.08,8.326H9.32c-0.829,0-1.5,0.672-1.5,1.5s0.671,1.5,1.5,1.5h18.295h138.777h0.002h52.477h0.001h9.512
			h18.295c0.829,0,1.5-0.672,1.5-1.5s-0.671-1.5-1.5-1.5h-8.104C241.644,203.315,244.139,200.455,245.656,196.964z M242.905,195.769
			c-0.118,0.272-0.25,0.535-0.382,0.798h-11.808c0-0.042,0.006-0.083,0.006-0.125v-0.001v-5.598h14.325L242.905,195.769z
			 M227.721,81.412c-2.172-2.444-5.329-3.996-8.849-3.996h-0.001h-14.127v-10.75c0-0.828-0.671-1.5-1.5-1.5H52.756
			c-0.829,0-1.5,0.672-1.5,1.5v56.842c0,0.828,0.671,1.5,1.5,1.5h101.788v54.426H32.059c-2.084,0-3.78-1.695-3.78-3.779V51.926
			c0-2.084,1.696-3.78,3.78-3.78h191.882c2.084,0,3.78,1.696,3.78,3.78V81.412z M154.544,95.379v26.629H54.256V68.166h147.487v9.25
			h-35.349h-0.002c-6.533,0-11.848,5.314-11.848,11.848v0.002V95.379z M157.544,89.266c0-4.88,3.97-8.85,8.85-8.85h52.477
			c4.88,0,8.85,3.97,8.85,8.85v4.613h-70.177V89.266z M154.551,196.566H93.513c-2.229,0-4.295-1.006-5.669-2.761l-2.321-2.963
			h69.022v5.598v0.001C154.544,196.484,154.55,196.524,154.551,196.566z M157.544,96.879h70.177v78.775v13.172h-70.177V96.879z
			 M19.87,175.678V51.901c0-6.707,5.457-12.164,12.165-12.164h191.931c6.708,0,12.165,5.457,12.165,12.164v123.776
			c0,4.074-2.076,7.868-5.409,10.108v-10.131V95.379v-6.113v-0.002V51.926c0-3.738-3.042-6.78-6.78-6.78H32.059
			c-3.739,0-6.78,3.042-6.78,6.78v123.729c0,3.738,3.042,6.779,6.78,6.779h122.485v5.409H82.442H32.035
			C25.327,187.843,19.87,182.386,19.87,175.678z M27.615,205.29c-4.787,0-9.22-2.157-12.18-5.724h29.14c0.829,0,1.5-0.672,1.5-1.5
			s-0.671-1.5-1.5-1.5H13.478c-0.132-0.263-0.264-0.526-0.382-0.798l-2.141-4.926h21.081h49.677l3.77,4.813
			c1.946,2.485,4.874,3.911,8.031,3.911h61.464c0.615,2.244,1.872,4.22,3.564,5.724H27.615z M166.395,205.29
			c-4.88,0-8.85-3.97-8.85-8.85v-4.614h70.177v4.614c0,4.88-3.97,8.85-8.85,8.85H166.395z M228.385,205.29h-1.66
			c1.693-1.504,2.949-3.479,3.564-5.724h10.276C237.605,203.133,233.172,205.29,228.385,205.29z"/>
		<path fill="#3F3679" d="M65.22,196.566H54.845c-0.829,0-1.5,0.672-1.5,1.5s0.671,1.5,1.5,1.5H65.22c0.829,0,1.5-0.672,1.5-1.5
			S66.048,196.566,65.22,196.566z"/>
		<path fill="#3F3679" d="M27.323,216.263H9.32c-0.829,0-1.5,0.672-1.5,1.5s0.671,1.5,1.5,1.5h18.003c0.829,0,1.5-0.672,1.5-1.5
			S28.152,216.263,27.323,216.263z"/>
		<path fill="#3F3679" d="M246.68,216.263h-18.003c-0.829,0-1.5,0.672-1.5,1.5s0.671,1.5,1.5,1.5h18.003c0.829,0,1.5-0.672,1.5-1.5
			S247.509,216.263,246.68,216.263z"/>
		<path fill="#3F3679" d="M218.479,216.263H37.521c-0.829,0-1.5,0.672-1.5,1.5s0.671,1.5,1.5,1.5h180.959c0.829,0,1.5-0.672,1.5-1.5
			S219.308,216.263,218.479,216.263z"/>
		<path fill="#3F3679" d="M205.41,82.924h-25.871c-0.829,0-1.5,0.672-1.5,1.5v5.447c0,0.828,0.671,1.5,1.5,1.5h25.871
			c0.829,0,1.5-0.672,1.5-1.5v-5.447C206.91,83.596,206.238,82.924,205.41,82.924z M203.91,88.371h-22.871v-2.447h22.871V88.371z"/>
		<path fill="#3F3679" d="M192.743,194.203c-2.559,0-4.641,2.082-4.641,4.641c0,2.56,2.082,4.642,4.641,4.642
			c2.56,0,4.642-2.082,4.642-4.642C197.385,196.285,195.303,194.203,192.743,194.203z M192.743,200.485
			c-0.905,0-1.641-0.736-1.641-1.642c0-0.904,0.736-1.641,1.641-1.641c0.905,0,1.642,0.736,1.642,1.641
			C194.385,199.749,193.648,200.485,192.743,200.485z"/>
		<path fill="#3F3679" d="M52.756,137.955H128c0.829,0,1.5-0.672,1.5-1.5s-0.671-1.5-1.5-1.5H52.756c-0.829,0-1.5,0.672-1.5,1.5
			S51.928,137.955,52.756,137.955z"/>
		<path fill="#3F3679" d="M128,147.902H52.756c-0.829,0-1.5,0.672-1.5,1.5s0.671,1.5,1.5,1.5H128c0.829,0,1.5-0.672,1.5-1.5
			S128.829,147.902,128,147.902z"/>
		<path fill="#3F3679" d="M128,160.851H52.756c-0.829,0-1.5,0.672-1.5,1.5s0.671,1.5,1.5,1.5H128c0.829,0,1.5-0.672,1.5-1.5
			S128.829,160.851,128,160.851z"/>
		<path fill="#3F3679" d="M218.638,105.587h-51.79c-0.829,0-1.5,0.672-1.5,1.5v31.264c0,0.828,0.671,1.5,1.5,1.5h51.79
			c0.829,0,1.5-0.672,1.5-1.5v-31.264C220.138,106.259,219.467,105.587,218.638,105.587z M217.138,136.851h-48.79v-28.264h48.79
			V136.851z"/>
		<path fill="#3F3679" d="M218.638,146.481h-51.79c-0.829,0-1.5,0.672-1.5,1.5s0.671,1.5,1.5,1.5h51.79c0.829,0,1.5-0.672,1.5-1.5
			S219.467,146.481,218.638,146.481z"/>
		<path fill="#3F3679" d="M218.638,154.926h-51.79c-0.829,0-1.5,0.672-1.5,1.5s0.671,1.5,1.5,1.5h51.79c0.829,0,1.5-0.672,1.5-1.5
			S219.467,154.926,218.638,154.926z"/>
		<path fill="#3F3679" d="M218.638,163.369h-51.79c-0.829,0-1.5,0.672-1.5,1.5s0.671,1.5,1.5,1.5h51.79c0.829,0,1.5-0.672,1.5-1.5
			S219.467,163.369,218.638,163.369z"/>
		<path fill="#3F3679" d="M218.638,171.813h-51.79c-0.829,0-1.5,0.672-1.5,1.5s0.671,1.5,1.5,1.5h51.79c0.829,0,1.5-0.672,1.5-1.5
			S219.467,171.813,218.638,171.813z"/>
	</g>
</g>
</svg>
